<svg xmlns="http://www.w3.org/2000/svg" version="1.1" xmlns:xlink="http://www.w3.org/1999/xlink" xmlns:svgjs="http://svgjs.dev/svgjs" width="1500" height="1500" viewBox="0 0 1500 1500"><rect width="1500" height="1500" fill="#000000"></rect><g transform="matrix(0.6666666666666666,0,0,0.6666666666666666,249.0751470922283,196.66666666666686)"><svg viewBox="0 0 253 280" data-background-color="#f9dbd4" preserveAspectRatio="xMidYMid meet" height="1660" width="1500" xmlns="http://www.w3.org/2000/svg" xmlns:xlink="http://www.w3.org/1999/xlink"><g id="tight-bounds" transform="matrix(1,0,0,1,0.233987785666244,-2.842170943040401e-14)"><svg viewBox="0 0 252.5320244286675 280" height="280" width="252.5320244286675"><g><svg viewBox="0 0 278.2696 308.5370585226854" height="280" width="252.5320244286675"><g><svg viewBox="0 0 278.2696 308.5370585226854" height="308.5370585226854" width="278.2696"><g id="textblocktransform"><svg viewBox="0 0 278.2696 308.5370585226854" height="308.5370585226854" width="278.2696" id="textblock"><g><svg viewBox="0 0 278.2696 278.2696" height="278.2696" width="278.2696"><g transform="matrix(1,0,0,1,98.81620216778612,89.94321971048298)"><svg viewBox="0 0 80.63719566442781 98.38316057903407" height="98.38316057903407" width="80.63719566442781"><g id="icon-0"><svg xmlns="http://www.w3.org/2000/svg" xmlns:xlink="http://www.w3.org/1999/xlink" version="1.1" x="0" y="0" viewBox="7.187 0.4849999999999999 81.169 99.03200000000001" enable-background="new 0 0 100 100" xml:space="preserve" height="98.38316057903407" width="80.63719566442781" class="icon-xg-0" data-fill-palette-color="accent" id="xg-0"><g fill="#412e27" data-fill-palette-color="accent"><path d="M49.877 92.378c12.023 0 21.769-9.748 21.769-21.771 0-3.732-0.938-7.246-2.594-10.314 2.576-1.014 4.4-3.525 4.4-6.461 0-3.074-2.009-5.688-4.778-6.598-1.8-0.565-3.007-3.102-2.419-6.652 0.205-1.007 0.289-2.046 0.289-3.106 0-5.175-2.288-10.017-6.007-13.074l-5.349-4.843h-5.312-5.314L39.215 24.4c-3.718 3.058-6.006 7.899-6.006 13.074 0 1.061 0.083 2.1 0.289 3.106 0.589 3.551-0.618 6.087-2.419 6.652-2.77 0.91-4.779 3.523-4.779 6.598 0 2.936 1.825 5.447 4.402 6.461-1.655 3.068-2.594 6.582-2.594 10.314C28.107 82.63 37.854 92.378 49.877 92.378L49.877 92.378zM41.344 20.697l1.101-0.997-0.618 0.062c-6.685 0.698-12.285 2.133-15.35 3.378-1.158 0.439-1.982 1.56-1.982 2.873l-0.003 65.015c0 1.309 0.819 2.426 1.973 2.869 4.228 1.719 13.359 3.811 23.409 3.811 10.041 0 19.169-2.088 23.399-3.807 1.159-0.439 1.982-1.559 1.982-2.873l0.004-65.015c0-1.311-0.819-2.428-1.973-2.869-3.152-1.282-9.027-2.77-15.979-3.444l1.102 0.998c6.354 0.714 11.665 2.087 14.551 3.262 0.828 0.314 1.421 1.117 1.421 2.054l-0.003 65.015c0 0.936-0.593 1.74-1.422 2.055-4.108 1.67-13.129 3.746-23.083 3.746-9.954 0-18.975-2.076-23.083-3.746-0.829-0.314-1.421-1.119-1.421-2.055l0.003-65.015c0-0.937 0.593-1.739 1.421-2.054C29.673 22.787 34.966 21.412 41.344 20.697L41.344 20.697zM32.049 4.233c-1.696 0-3.072 1.376-3.072 3.072v7.119c0 1.695 1.375 3.071 3.072 3.071h35.607c1.696 0 3.072-1.376 3.072-3.071V7.306c0-1.696-1.376-3.072-3.072-3.072H32.049L32.049 4.233zM83.297 38.223c0.086-0.89 0.836-1.584 1.747-1.584h1.557c0.969 0 1.755 0.785 1.755 1.755v24.188c0 0.969-0.786 1.754-1.755 1.754h-1.557c-0.911 0-1.661-0.695-1.747-1.584l-3.604 1.258h-2.779v18.26h2.078c0.112-0.357 0.445-0.615 0.839-0.615h1.131c0.484 0 0.879 0.393 0.879 0.877v8.281c0 0.486-0.395 0.879-0.879 0.879h-1.131c-0.394 0-0.727-0.26-0.839-0.615h-2.078v5.809c0 1.453-1.179 2.631-2.632 2.631H25.688c-1.454 0-2.633-1.178-2.633-2.631V66.597c-1.026-0.955-1.911-2.451-2.568-4.316-0.462 4.266-1.328 9.307-3.368 15.404-1.548 4.629-2.693 9.145-2.268 12.977 0.148 1.34-0.867 1.543-1.016 0.203-0.097-0.873-0.165-1.783-0.198-2.719-0.327 0.229-0.726 0.363-1.157 0.363H9.208c-1.117 0-2.021-0.904-2.021-2.021v-1.668c0-1.117 0.904-2.021 2.021-2.021h3.272c0.516 0 0.986 0.193 1.343 0.512 0.229-2.027 0.665-4.131 1.379-6.266 2.51-7.502 3.191-13.348 3.566-18.158 0.188-2.41 0.272-5.039 0.644-7.57 0.461-4.098 1.83-7.47 3.642-9.156V3.117c0-1.454 1.179-2.632 2.633-2.632h48.594c1.453 0 2.632 1.178 2.632 2.632v23.421h2.078c0.112-0.355 0.445-0.614 0.839-0.614h1.131c0.484 0 0.879 0.394 0.879 0.877v8.282c0 0.485-0.395 0.877-0.879 0.877h-1.131c-0.394 0-0.727-0.258-0.839-0.615h-2.078v1.618h2.779L83.297 38.223 83.297 38.223zM37.145 62.155c-1.61 2.42-2.548 5.326-2.548 8.451 0 8.439 6.841 15.281 15.28 15.281 8.438 0 15.279-6.842 15.279-15.281 0-3.1-0.924-5.982-2.511-8.393 0.424 0.189 0.864 0.352 1.318 0.477 1.318 2.34 2.07 5.041 2.07 7.916 0 8.926-7.233 16.158-16.157 16.158-8.924 0-16.159-7.232-16.159-16.158 0-2.887 0.758-5.6 2.086-7.945C36.267 62.526 36.715 62.358 37.145 62.155L37.145 62.155zM60.959 53.831c0-3.02 2.448-5.469 5.468-5.469 3.019 0 5.468 2.449 5.468 5.469s-2.449 5.467-5.468 5.467C63.407 59.298 60.959 56.851 60.959 53.831L60.959 53.831zM64.711 53.831c0 0.947 0.769 1.715 1.716 1.715s1.715-0.768 1.715-1.715-0.768-1.717-1.715-1.717S64.711 52.884 64.711 53.831L64.711 53.831zM27.772 53.831c0-3.02 2.447-5.469 5.467-5.469 3.02 0 5.468 2.449 5.468 5.469s-2.448 5.467-5.468 5.467C30.22 59.298 27.772 56.851 27.772 53.831L27.772 53.831zM31.523 53.831c0 0.947 0.769 1.715 1.716 1.715 0.948 0 1.716-0.768 1.716-1.715s-0.768-1.717-1.716-1.717C32.292 52.114 31.523 52.884 31.523 53.831L31.523 53.831zM37.119 70.606c0-7.045 5.712-12.758 12.758-12.758 7.045 0 12.757 5.713 12.757 12.758 0 7.047-5.712 12.758-12.757 12.758C42.831 83.364 37.119 77.653 37.119 70.606L37.119 70.606zM43.511 67.196c0 1.713 1.39 3.104 3.103 3.104s3.103-1.391 3.103-3.104-1.39-3.104-3.103-3.104S43.511 65.483 43.511 67.196L43.511 67.196zM37.119 37.475c0-7.048 5.712-12.759 12.758-12.759 7.045 0 12.757 5.711 12.757 12.759 0 7.046-5.712 12.757-12.757 12.757C42.831 50.231 37.119 44.521 37.119 37.475L37.119 37.475zM43.511 33.306c0 1.713 1.39 3.102 3.103 3.102s3.103-1.389 3.103-3.102c0-1.715-1.39-3.104-3.103-3.104S43.511 31.591 43.511 33.306L43.511 33.306zM67.556 62.954c1.017 2.346 1.579 4.934 1.579 7.652 0 10.639-8.622 19.26-19.258 19.26-10.637 0-19.26-8.621-19.26-19.26 0-2.715 0.562-5.299 1.576-7.641 0.307 0.035 0.619 0.053 0.934 0.057-1.048 2.312-1.632 4.881-1.632 7.584 0 10.152 8.229 18.381 18.382 18.381 10.152 0 18.381-8.229 18.381-18.381 0-2.705-0.584-5.271-1.634-7.586C66.938 63.015 67.249 62.993 67.556 62.954L67.556 62.954zM32.049 5.111h35.607c1.212 0 2.194 0.983 2.194 2.194v7.119c0 1.212-0.982 2.193-2.194 2.193H32.049c-1.211 0-2.194-0.981-2.194-2.193V7.306C29.855 6.095 30.837 5.111 32.049 5.111L32.049 5.111z" fill="#ffffff" data-fill-palette-color="accent"></path></g></svg></g></svg></g><g id="text-0"><path d="M21.923 93.417v0l0.608-1.354c0.718-1.989 0.633-3.928-0.255-5.817v0c-0.887-1.889-2.367-3.207-4.439-3.955v0c-2.712-0.979-5.151-0.51-7.317 1.405v0c-1.194 1.044-2.118 2.294-2.774 3.749v0c-0.284 0.606-0.524 1.181-0.719 1.725v0l-0.416 1.151c-0.085 0.237-0.155 0.45-0.209 0.64v0l22.74 8.205-3.116 8.635-23.977-8.651c0.953-2.642 1.725-4.782 2.315-6.419 0.591-1.638 0.983-2.703 1.176-3.198 0.184-0.49 0.356-0.927 0.516-1.31 0.16-0.383 0.311-0.741 0.452-1.073v0c0.225-0.483 0.587-1.147 1.088-1.993 0.494-0.848 1.142-1.634 1.945-2.356 0.794-0.718 1.656-1.275 2.587-1.669v0c1.991-0.85 4.017-0.904 6.077-0.161v0c2.034 0.734 3.596 2.024 4.687 3.87v0c1.115 1.899 1.509 4.033 1.182 6.402v0c3.628 0.123 6.053-0.516 7.274-1.919v0c0.37-0.423 0.644-0.884 0.825-1.383v0l0.164-1.448c0.152-0.422 0.443-0.556 0.872-0.402v0c0.601 0.217 0.649 1.026 0.143 2.427v0c-0.367 1.017-0.989 1.848-1.864 2.494v0c-1.262 1.034-3.202 1.603-5.821 1.706v0l-1.386 0.053c-0.222 0.014-0.366 0.042-0.431 0.083-0.068 0.048-0.129 0.148-0.185 0.302-0.055 0.154-0.09 0.289-0.103 0.407v0l-0.13 0.42c-0.162 0.448-0.359 0.724-0.591 0.827-0.226 0.106-0.432 0.126-0.618 0.059v0c-0.486-0.175-0.586-0.66-0.3-1.452z" fill="#ffffff" data-fill-palette-color="primary"></path><path d="M41.888 65.977v0c0.254-0.395 0.561-0.476 0.921-0.245v0c0.275 0.176 0.486 0.559 0.634 1.146v0c0.617 2.651 0.032 5.367-1.755 8.148v0c-1.602 2.495-3.708 4.112-6.318 4.852v0c-2.698 0.765-5.245 0.377-7.642-1.163v0c-2.443-1.569-3.941-3.659-4.495-6.27v0c-0.592-2.765 0.01-5.546 1.808-8.344v0c1.441-2.243 3.333-3.691 5.675-4.343v0c2.529-0.703 4.983-0.29 7.364 1.238v0c0.343 0.221 0.699 0.465 1.068 0.735v0l-6.423 9.998 6.505 4.179c0.584-0.595 1.152-1.321 1.703-2.179v0c1.169-1.819 1.564-3.756 1.186-5.81v0c-0.094-0.432-0.183-0.752-0.268-0.96v0c-0.13-0.415-0.117-0.742 0.037-0.982zM34.322 66.827l-6.419-4.124c-0.611 0.537-1.184 1.22-1.717 2.049-0.529 0.824-0.896 1.514-1.099 2.07v0l6.539 4.201z" fill="#ffffff" data-fill-palette-color="primary"></path><path d="M55.871 57.412v0c-3.252 3.401-6.434 3.614-9.545 0.638v0l-8.551-8.149-1.365 1.56c-0.447 0.467-0.849 0.529-1.208 0.186-0.354-0.338-0.291-0.758 0.189-1.26v0l1.25-1.204 0.183-0.191-2.02-1.932 2.845-7.978 4.519 4.322 1.671-1.747 1.126-1.281c0.494-0.516 0.922-0.6 1.285-0.252v0c0.162 0.155 0.219 0.351 0.172 0.588-0.043 0.232-0.151 0.439-0.325 0.62v0l-1.61 1.551-1.368 1.43 12.237 11.704c0.953-1.036 1.472-2.159 1.556-3.368v0c0.064-0.559-0.031-1.089-0.288-1.588-0.252-0.495-0.377-0.85-0.378-1.067-0.005-0.212 0.063-0.391 0.205-0.538v0c0.141-0.147 0.317-0.219 0.529-0.214 0.217 0.01 0.406 0.092 0.568 0.247 0.162 0.155 0.297 0.369 0.404 0.64 0.117 0.272 0.199 0.599 0.246 0.983v0c0.115 0.854 0.071 1.672-0.133 2.456v0c-0.372 1.422-1.104 2.704-2.194 3.844z" fill="#ffffff" data-fill-palette-color="primary"></path><path d="M63.85 49.451l-11.747-15.236 6.131-4.727 3.451 4.475c-0.597-2.133-0.813-3.872-0.649-5.218 0.17-1.35 0.634-2.318 1.394-2.904v0c0.425-0.328 0.85-0.479 1.273-0.453 0.428 0.031 0.747 0.184 0.959 0.458 0.212 0.275 0.342 0.522 0.391 0.742 0.049 0.22 0.058 0.437 0.025 0.65v0c-0.076 0.436-0.227 0.742-0.453 0.916v0c-0.361 0.278-0.656 0.446-0.887 0.504v0c-0.4 0.094-0.713 0.228-0.939 0.402-0.232 0.179-0.381 0.586-0.449 1.222-0.068 0.636-0.014 1.402 0.161 2.297v0c0.425 2.188 1.35 4.206 2.774 6.053v0l4.696 6.091z" fill="#ffffff" data-fill-palette-color="primary"></path><path d="M72.969 30.976v0c-0.662-1.281-1.032-2.567-1.11-3.858-0.078-1.292 0.087-2.533 0.497-3.725v0c0.89-2.573 2.658-4.543 5.304-5.911v0c2.694-1.393 5.337-1.664 7.927-0.814v0c2.468 0.791 4.349 2.437 5.641 4.937v0c1.296 2.507 1.546 5.034 0.75 7.582v0c-0.816 2.627-2.562 4.632-5.238 6.015v0c-2.616 1.352-5.212 1.646-7.789 0.88v0c-2.642-0.801-4.635-2.503-5.982-5.106zM77.757 18.936l7.907 15.295c0.091-0.032 0.179-0.069 0.263-0.113v0l0.227-0.117c2.157-1.115 3.621-2.718 4.392-4.809v0c0.815-2.243 0.619-4.534-0.59-6.872v0c-1.18-2.283-2.869-3.757-5.064-4.42v0c-2.171-0.661-4.399-0.401-6.683 0.779v0l-0.235 0.121c-0.079 0.041-0.151 0.086-0.217 0.136z" fill="#ffffff" data-fill-palette-color="primary"></path><path d="M119.707 19.242v0c0.48-0.128 0.791 0.077 0.935 0.616v0c0.118 0.44-0.103 0.971-0.662 1.592v0c-1.029 1.155-1.94 1.975-2.732 2.461v0c-1.488 0.911-3.119 1.604-4.893 2.077-1.774 0.474-3.567 0.611-5.38 0.413-1.811-0.192-3.446-0.702-4.906-1.53v0c-3.07-1.742-5.11-4.506-6.121-8.29v0c-0.486-1.82-0.588-3.584-0.304-5.292 0.276-1.707 0.87-3.266 1.781-4.678v0c1.938-2.995 4.839-5.009 8.702-6.04v0c2.168-0.579 4.176-0.717 6.023-0.416v0c1.963 0.313 3.017 0.743 3.163 1.288v0c0.058 0.217 0.037 0.427-0.064 0.63-0.101 0.203-0.246 0.33-0.437 0.38v0c-0.368 0.098-0.748 0.02-1.14-0.234-0.39-0.248-0.877-0.438-1.461-0.57-0.589-0.124-1.219-0.202-1.889-0.235v0c-1.352-0.054-2.543 0.056-3.575 0.332-1.025 0.274-1.853 0.572-2.485 0.896v0l5.958 22.312c0.845-0.078 1.583-0.201 2.214-0.37 0.624-0.167 1.251-0.376 1.88-0.629 0.628-0.259 1.229-0.564 1.804-0.914v0c1.294-0.796 2.187-1.693 2.681-2.691v0c0.169-0.369 0.313-0.633 0.433-0.791 0.12-0.159 0.278-0.264 0.475-0.317z" fill="#ffffff" data-fill-palette-color="primary"></path><path d="M126.849 22.854l-1.29-19.195 7.724-0.519 0.379 5.638c0.69-2.105 1.478-3.671 2.363-4.698 0.892-1.028 1.816-1.574 2.773-1.638v0c0.536-0.036 0.973 0.074 1.31 0.331 0.338 0.264 0.519 0.568 0.542 0.915 0.023 0.346-0.006 0.624-0.087 0.834-0.081 0.21-0.195 0.395-0.341 0.554v0c-0.306 0.32-0.601 0.49-0.886 0.51v0c-0.455 0.031-0.794 0.006-1.017-0.075v0c-0.385-0.145-0.719-0.207-1.004-0.188-0.292 0.02-0.643 0.275-1.053 0.766-0.41 0.491-0.791 1.157-1.143 1.999v0c-0.864 2.055-1.218 4.246-1.061 6.573v0l0.515 7.674z" fill="#ffffff" data-fill-palette-color="primary"></path><path d="M157.202 23.816l0.137-1.186c-1.645 0.844-3.399 1.157-5.264 0.942v0c-2.466-0.285-4.373-1.135-5.722-2.551v0c-1.399-1.456-1.968-3.318-1.705-5.588v0c0.231-2 1.188-3.556 2.871-4.669v0c1.731-1.121 3.877-1.533 6.437-1.237v0c1.723 0.199 3.295 0.716 4.719 1.552v0l0.569-4.925c-1.052-0.436-1.99-0.702-2.814-0.798-0.831-0.096-1.538-0.14-2.12-0.132-0.582 0.001-1.138 0.043-1.668 0.126v0c-1.144 0.183-2.033 0.504-2.668 0.964v0c-0.367 0.272-0.689 0.393-0.966 0.361-0.27-0.031-0.472-0.123-0.605-0.275-0.125-0.158-0.179-0.318-0.16-0.481 0.02-0.169 0.068-0.321 0.145-0.455 0.076-0.128 0.207-0.253 0.393-0.376v0c0.394-0.269 1.024-0.511 1.891-0.726v0c1.805-0.455 3.579-0.582 5.322-0.381v0c5.296 0.612 8.534 2.267 9.715 4.964v0c0.512 1.196 0.662 2.709 0.45 4.539v0l-1.297 11.218zM157.516 21.1l0.998-8.633c-1.416-0.896-2.871-1.431-4.363-1.603v0c-0.243-0.028-0.471-0.037-0.685-0.028v0l-1.316 11.379c0.052 0.02 0.116 0.034 0.19 0.043 0.074 0.009 0.145 0.017 0.213 0.024v0c1.635 0.189 3.289-0.205 4.963-1.182z" fill="#ffffff" data-fill-palette-color="primary"></path><path d="M187.73 13.384v0l-1.807-0.677-1.897-0.631-5.658 17.005-7.346-2.444 5.668-17.002-0.271-0.09-1.649-0.474c-0.671-0.223-0.929-0.567-0.774-1.031 0.152-0.458 0.535-0.585 1.148-0.382v0l2.019 0.748c0.926-1.985 2.367-3.258 4.324-3.819v0c1.793-0.521 3.871-0.389 6.232 0.397v0c2.207 0.734 3.58 1.679 4.121 2.833v0c0.146 0.314 0.183 0.581 0.11 0.8v0c-0.165 0.497-0.503 0.66-1.013 0.491v0c-0.252-0.084-0.469-0.249-0.652-0.497v0l-0.477-0.632c-0.495-0.709-1.116-1.213-1.862-1.511v0c-0.202-0.082-0.416-0.16-0.642-0.235-0.219-0.073-0.43-0.129-0.633-0.168-0.2-0.045-0.401-0.087-0.603-0.125v0l-1.626 4.887 1.49 0.496 2.307 0.693c0.619 0.206 0.853 0.538 0.701 0.996-0.155 0.465-0.558 0.588-1.21 0.372z" fill="#ffffff" data-fill-palette-color="primary"></path><path d="M193.01 35.806v0c-4.215-2.092-5.366-5.066-3.452-8.922v0l5.233-10.589-1.895-0.839c-0.579-0.287-0.758-0.653-0.537-1.098 0.218-0.439 0.637-0.504 1.258-0.195v0l1.522 0.835 0.237 0.118 1.243-2.504 8.463 0.341-2.78 5.601 2.165 1.074 1.558 0.694c0.64 0.317 0.847 0.702 0.624 1.152v0c-0.1 0.201-0.27 0.314-0.51 0.339-0.234 0.028-0.464-0.014-0.689-0.126v0l-1.961-1.075-1.772-0.88-7.528 15.167c1.273 0.601 2.499 0.762 3.678 0.482v0c0.553-0.105 1.03-0.354 1.43-0.748 0.397-0.387 0.699-0.613 0.906-0.677 0.201-0.067 0.392-0.056 0.575 0.035v0c0.183 0.091 0.303 0.238 0.361 0.441 0.055 0.21 0.033 0.415-0.066 0.616-0.1 0.201-0.263 0.393-0.491 0.576-0.224 0.192-0.513 0.368-0.866 0.527v0c-0.781 0.364-1.575 0.566-2.384 0.605v0c-1.469 0.068-2.91-0.248-4.322-0.95z" fill="#ffffff" data-fill-palette-color="primary"></path><path d="M237.369 46.859l-9.789 11.087-1.17 1.417c-0.207 0.234-0.436 0.355-0.686 0.36-0.241 0.005-0.45-0.071-0.628-0.228-0.173-0.153-0.259-0.333-0.258-0.541-0.008-0.207 0.069-0.402 0.231-0.585v0c0.158-0.178 0.358-0.359 0.603-0.543v0c0.309-0.226 0.956-0.898 1.941-2.014v0l8.703-9.856-6.79-5.996-11.504 13.029-6.897-6.09 16.872-19.107 6.897 6.09-4.497 5.092c1.947 1.719 3.499 3.09 4.657 4.112 1.152 1.017 1.868 1.64 2.147 1.868v0l2.072-2.347c0.693-0.785 1.131-1.306 1.312-1.563v0l0.305-0.453c0.102-0.136 0.192-0.248 0.268-0.334v0c0.365-0.413 0.735-0.453 1.113-0.12v0c0.138 0.122 0.231 0.299 0.279 0.532 0.053 0.238-0.03 0.481-0.251 0.731v0l-1.587 1.674-2.424 2.745 0.964 0.634c0.158 0.14 0.25 0.307 0.277 0.503 0.026 0.186-0.028 0.356-0.163 0.509v0c-0.311 0.352-0.766 0.303-1.368-0.147v0c-0.11-0.07-0.216-0.146-0.318-0.226-0.096-0.076-0.2-0.154-0.31-0.233z" fill="#ffffff" data-fill-palette-color="primary"></path><path d="M233.668 70.907v0c-2.452-3.43-2.002-6.343 1.35-8.74v0l10.903-7.796 4.485 6.273-14.346 10.258c0.017 0.13 0.08 0.269 0.186 0.419v0l0.344 0.481c0.558 0.78 1.75 1.332 3.578 1.655v0c0.55 0.091 1.117 0.142 1.701 0.151v0l11.782-8.425 4.509 6.306-15.649 11.19-4.509-6.306 2.257-1.614c-2.832-0.383-5.029-1.667-6.591-3.852z" fill="#ffffff" data-fill-palette-color="primary"></path><path d="M249.175 100.091v0c-0.62-1.546-0.869-3.187-0.745-4.922v0l-0.738 0.297-2.754-6.864 23.657-9.493 2.754 6.864-6.655 2.67c1.34 1.111 2.32 2.44 2.941 3.986 0.623 1.553 0.942 3.004 0.955 4.354 0.01 1.359-0.218 2.615-0.685 3.77v0c-0.997 2.408-2.818 4.142-5.463 5.203v0c-2.663 1.069-5.217 1.104-7.662 0.107v0c-2.549-1.021-4.418-3.012-5.605-5.972zM266.413 93.119v0c-0.661-1.647-1.714-2.947-3.158-3.899v0l-13.405 5.379c-0.239 1.796 0.006 3.603 0.736 5.421v0l0.174 0.435c0.053 0.133 0.116 0.254 0.19 0.364v0l15.876-6.371c-0.1-0.451-0.238-0.894-0.413-1.329z" fill="#ffffff" data-fill-palette-color="primary"></path><path d="M19.351 187.908v0l0.372 1.351c0.669 1.884 1.898 3.248 3.685 4.092v0c1.78 0.847 3.651 0.922 5.611 0.225v0c2.57-0.913 4.072-2.717 4.507-5.412v0c0.244-1.487 0.17-2.954-0.222-4.402v0c-0.163-0.621-0.335-1.187-0.517-1.7v0l-0.39-1.096c-0.08-0.224-0.152-0.419-0.217-0.583v0l-21.55 7.658-2.91-8.189 22.722-8.074c0.89 2.505 1.611 4.533 2.162 6.084 0.551 1.551 0.904 2.565 1.06 3.044 0.153 0.472 0.29 0.897 0.409 1.273 0.111 0.372 0.213 0.722 0.308 1.049v0c0.124 0.49 0.258 1.193 0.403 2.108 0.147 0.922 0.147 1.886-0.001 2.891-0.148 1.005-0.447 1.931-0.898 2.776v0c-0.943 1.815-2.388 3.068-4.336 3.76v0c-1.929 0.685-3.846 0.681-5.753-0.013v0c-1.956-0.712-3.523-2.035-4.701-3.969v0c-2.736 2.091-4.127 4.014-4.174 5.77v0c-0.013 0.532 0.064 1.034 0.233 1.509v0l0.749 1.162c0.141 0.397 0.01 0.668-0.394 0.811v0c-0.57 0.203-1.092-0.362-1.566-1.695v0c-0.342-0.961-0.385-1.938-0.132-2.93v0c0.303-1.522 1.379-3.106 3.226-4.751v0l0.98-0.868c0.152-0.141 0.24-0.248 0.265-0.321 0.024-0.074 0.01-0.184-0.042-0.332-0.05-0.141-0.107-0.261-0.172-0.361v0l-0.146-0.381c-0.153-0.429-0.176-0.749-0.07-0.96 0.106-0.211 0.242-0.346 0.408-0.405v0c0.461-0.164 0.825 0.129 1.091 0.879z" fill="#ffffff" data-fill-palette-color="primary"></path><path d="M31.963 220.107v0c0.237 0.373 0.183 0.669-0.162 0.887v0c-0.258 0.164-0.671 0.192-1.239 0.085v0c-2.518-0.53-4.612-2.113-6.283-4.749v0c-1.504-2.372-2.054-4.821-1.65-7.348v0c0.421-2.626 1.769-4.66 4.043-6.101v0c2.32-1.471 4.711-1.923 7.171-1.357v0c2.607 0.594 4.753 2.221 6.439 4.88v0c1.351 2.131 1.839 4.33 1.463 6.596v0c-0.405 2.447-1.74 4.388-4.002 5.822v0c-0.327 0.208-0.677 0.417-1.051 0.63v0l-6.023-9.503-6.177 3.915c0.283 0.739 0.683 1.516 1.2 2.332v0c1.096 1.729 2.601 2.84 4.515 3.333v0c0.404 0.09 0.712 0.145 0.925 0.162v0c0.408 0.047 0.685 0.186 0.831 0.416zM34.249 213.272l6.082-3.856c-0.209-0.737-0.563-1.499-1.062-2.285-0.499-0.787-0.947-1.38-1.346-1.78v0l-6.203 3.932z" fill="#ffffff" data-fill-palette-color="primary"></path><path d="M40.765 237.125v0c-3.061-3.236-3.114-6.251-0.16-9.046v0l8.108-7.697-1.405-1.366c-0.421-0.445-0.463-0.826-0.127-1.144 0.341-0.322 0.738-0.244 1.191 0.235v0l1.07 1.235 0.175 0.185 1.919-1.815 7.405 3.063-4.298 4.066 1.57 1.66 1.159 1.121c0.463 0.489 0.521 0.897 0.175 1.225v0c-0.158 0.15-0.347 0.197-0.566 0.143-0.21-0.054-0.397-0.167-0.561-0.341v0l-1.399-1.597-1.282-1.356-11.635 11.004c0.926 0.949 1.962 1.49 3.108 1.624v0c0.522 0.087 1.024 0.024 1.506-0.189 0.487-0.217 0.829-0.321 1.026-0.311 0.202 0.006 0.368 0.078 0.499 0.216v0c0.136 0.143 0.196 0.316 0.181 0.518-0.02 0.206-0.107 0.382-0.26 0.526-0.153 0.145-0.361 0.262-0.623 0.351-0.267 0.094-0.582 0.157-0.944 0.19v0c-0.81 0.064-1.582-0.02-2.316-0.252v0c-1.326-0.422-2.498-1.171-3.516-2.248z" fill="#ffffff" data-fill-palette-color="primary"></path><path d="M51.905 247.091l11.15-14.381 5.788 4.487-3.275 4.224c1.811-1.048 3.352-1.66 4.624-1.835 1.273-0.166 2.27 0.03 2.99 0.588v0c0.403 0.313 0.642 0.665 0.716 1.058 0.079 0.397 0.017 0.727-0.188 0.991-0.2 0.258-0.398 0.436-0.594 0.533-0.187 0.096-0.381 0.152-0.582 0.168v0c-0.417 0.038-0.733-0.026-0.948-0.192v0c-0.344-0.267-0.569-0.497-0.676-0.693v0c-0.174-0.341-0.371-0.598-0.592-0.768-0.215-0.167-0.62-0.205-1.214-0.115-0.604 0.091-1.295 0.321-2.072 0.691v0c-1.905 0.915-3.533 2.243-4.883 3.984v0l-4.456 5.747z" fill="#ffffff" data-fill-palette-color="primary"></path><path d="M73 250.846v0c0.63-1.213 1.422-2.2 2.376-2.962 0.957-0.767 2.011-1.32 3.159-1.659v0c2.468-0.711 4.952-0.418 7.451 0.879v0c2.547 1.322 4.201 3.214 4.961 5.677v0c0.731 2.341 0.485 4.691-0.741 7.051v0c-1.231 2.372-3.046 3.943-5.445 4.713v0c-2.479 0.805-4.983 0.552-7.512-0.761v0c-2.469-1.281-4.109-3.125-4.921-5.53v0c-0.83-2.476-0.605-4.945 0.672-7.408zM84.919 247.964l-7.503 14.459c0.078 0.056 0.157 0.104 0.235 0.145v0l0.208 0.108c2.04 1.059 4.079 1.316 6.116 0.771v0c2.178-0.594 3.839-1.995 4.986-4.204v0c1.121-2.161 1.339-4.27 0.651-6.327v0c-0.675-2.036-2.09-3.613-4.245-4.731v0l-0.226-0.118c-0.072-0.038-0.146-0.072-0.222-0.103z" fill="#ffffff" data-fill-palette-color="primary"></path><path d="M115.898 272.548v0c0.446 0.12 0.602 0.433 0.466 0.939v0c-0.112 0.414-0.542 0.745-1.293 0.993v0c-1.391 0.456-2.526 0.696-3.405 0.72v0c-1.645 0.042-3.305-0.162-4.98-0.614-1.681-0.453-3.216-1.187-4.604-2.202-1.395-1.017-2.496-2.212-3.302-3.584v0c-1.683-2.876-2.042-6.104-1.077-9.682v0c0.464-1.72 1.215-3.215 2.254-4.484 1.031-1.264 2.257-2.258 3.677-2.981v0c2.999-1.537 6.327-1.813 9.985-0.827v0c2.049 0.552 3.756 1.389 5.123 2.511v0c1.456 1.181 2.115 2.031 1.975 2.55v0c-0.055 0.204-0.169 0.366-0.343 0.489-0.179 0.114-0.357 0.147-0.534 0.099v0c-0.348-0.094-0.624-0.337-0.828-0.73-0.199-0.385-0.51-0.771-0.934-1.161-0.419-0.38-0.895-0.741-1.43-1.082v0c-1.083-0.686-2.11-1.16-3.082-1.423-0.972-0.262-1.795-0.41-2.469-0.443v0l-5.683 21.086c0.733 0.338 1.398 0.588 1.995 0.749 0.591 0.159 1.202 0.282 1.834 0.368 0.637 0.094 1.274 0.132 1.913 0.114v0c1.433-0.036 2.587-0.349 3.464-0.936v0c0.319-0.217 0.566-0.362 0.741-0.434 0.168-0.074 0.347-0.086 0.537-0.035z" fill="#ffffff" data-fill-palette-color="primary"></path><path d="M125.531 277.765l1.253-18.154 7.307 0.504-0.368 5.333c0.92-1.879 1.86-3.246 2.818-4.1 0.965-0.847 1.902-1.239 2.811-1.176v0c0.509 0.035 0.903 0.195 1.184 0.48 0.287 0.286 0.419 0.595 0.396 0.927-0.022 0.326-0.088 0.584-0.196 0.774-0.101 0.184-0.231 0.339-0.39 0.464v0c-0.325 0.264-0.623 0.386-0.895 0.367v0c-0.434-0.03-0.75-0.096-0.947-0.198v0c-0.335-0.187-0.641-0.29-0.919-0.309-0.271-0.019-0.629 0.175-1.073 0.581-0.451 0.412-0.896 0.988-1.336 1.727v0c-1.073 1.821-1.686 3.83-1.837 6.029v0l-0.501 7.256z" fill="#ffffff" data-fill-palette-color="primary"></path><path d="M159.085 276.793l-0.128-1.115c-1.336 1.125-2.885 1.789-4.648 1.992v0c-2.338 0.269-4.276-0.104-5.817-1.118v0c-1.612-1.04-2.541-2.631-2.787-4.772v0c-0.218-1.898 0.333-3.539 1.652-4.923v0c1.345-1.4 3.234-2.24 5.666-2.52v0c1.621-0.186 3.181-0.051 4.677 0.407v0l-0.535-4.661c-1.06-0.173-1.986-0.213-2.776-0.123-0.784 0.09-1.442 0.2-1.975 0.33-0.533 0.13-1.034 0.29-1.505 0.481v0c-1.014 0.411-1.762 0.897-2.245 1.459v0c-0.284 0.327-0.558 0.506-0.822 0.536-0.257 0.029-0.46-0.012-0.61-0.125-0.15-0.113-0.234-0.25-0.252-0.413-0.018-0.155-0.007-0.3 0.032-0.435 0.046-0.135 0.139-0.28 0.279-0.432v0c0.304-0.336 0.834-0.695 1.591-1.076v0c1.563-0.809 3.169-1.309 4.817-1.498v0c5.013-0.576 8.349 0.252 10.009 2.484v0c0.737 0.99 1.204 2.35 1.403 4.08v0l1.219 10.61zM158.789 274.219l-0.937-8.157c-1.505-0.525-2.963-0.707-4.375-0.545v0c-0.223 0.026-0.434 0.067-0.633 0.124v0l1.237 10.762c0.056 0.007 0.117 0.007 0.185-0.001 0.068-0.008 0.135-0.016 0.202-0.023v0c1.547-0.178 2.987-0.898 4.321-2.16z" fill="#ffffff" data-fill-palette-color="primary"></path><path d="M182.457 253.497v0l-1.746 0.504-1.801 0.597 5.337 16.091-6.951 2.306-5.318-16.098-0.261 0.087-1.517 0.578c-0.633 0.21-1.022 0.095-1.168-0.343-0.146-0.439 0.072-0.755 0.653-0.948v0l1.95-0.571c-0.421-2.024-0.048-3.806 1.117-5.346v0c1.06-1.405 2.707-2.478 4.94-3.219v0c2.091-0.694 3.669-0.755 4.733-0.183v0c0.294 0.153 0.476 0.333 0.544 0.54v0c0.156 0.471-0.011 0.788-0.501 0.95v0c-0.232 0.077-0.488 0.072-0.768-0.014v0l-0.716-0.214c-0.778-0.251-1.536-0.279-2.274-0.084v0c-0.198 0.051-0.403 0.112-0.616 0.183-0.213 0.071-0.407 0.146-0.581 0.225-0.172 0.086-0.349 0.169-0.53 0.251v0l1.535 4.628 1.414-0.469 2.136-0.784c0.587-0.195 0.954-0.073 1.1 0.366 0.146 0.439-0.091 0.761-0.711 0.967z" fill="#ffffff" data-fill-palette-color="primary"></path><path d="M202.139 263.345v0c-3.985 1.99-6.886 1.166-8.703-2.472v0l-5.013-9.993-1.716 0.949c-0.548 0.273-0.925 0.203-1.131-0.211-0.21-0.42-0.019-0.777 0.571-1.072v0l1.492-0.665 0.228-0.114-1.181-2.363 5.081-6.197 2.643 5.292 2.044-1.02 1.41-0.784c0.602-0.301 1.01-0.238 1.223 0.187v0c0.097 0.195 0.088 0.389-0.028 0.584-0.113 0.185-0.275 0.331-0.488 0.438v0l-1.935 0.875-1.67 0.834 7.155 14.327c1.177-0.611 1.996-1.445 2.456-2.503v0c0.234-0.474 0.32-0.973 0.256-1.496-0.067-0.529-0.066-0.887 0-1.072 0.064-0.192 0.181-0.33 0.352-0.415v0c0.176-0.088 0.359-0.096 0.547-0.023 0.192 0.079 0.334 0.213 0.429 0.402 0.094 0.189 0.146 0.421 0.154 0.698 0.012 0.283-0.019 0.602-0.091 0.958v0c-0.174 0.794-0.478 1.508-0.914 2.143v0c-0.788 1.146-1.845 2.05-3.171 2.713z" fill="#ffffff" data-fill-palette-color="primary"></path><path d="M228.144 223.128l9.369 10.397 1.199 1.254c0.2 0.222 0.29 0.448 0.268 0.678-0.022 0.23-0.116 0.42-0.282 0.57-0.162 0.146-0.338 0.209-0.53 0.189-0.201-0.02-0.377-0.113-0.527-0.28v0c-0.155-0.172-0.305-0.384-0.451-0.637v0c-0.172-0.312-0.731-0.994-1.678-2.045v0l-8.324-9.236-6.372 5.743 11.008 12.214-6.464 5.825-16.143-17.913 6.463-5.825 4.303 4.774c1.824-1.643 3.278-2.955 4.364-3.933 1.081-0.974 1.746-1.582 1.994-1.825v0l-1.98-2.197c-0.665-0.738-1.107-1.204-1.328-1.398v0l-0.395-0.331c-0.119-0.112-0.215-0.209-0.288-0.29v0c-0.351-0.389-0.349-0.743 0.004-1.061v0c0.126-0.114 0.303-0.182 0.531-0.204 0.227-0.022 0.448 0.086 0.662 0.323v0l1.408 1.67 2.315 2.568 0.694-0.83c0.152-0.137 0.319-0.21 0.502-0.22 0.183 0 0.338 0.071 0.466 0.212v0c0.296 0.328 0.202 0.752-0.283 1.271v0c-0.077 0.097-0.159 0.189-0.245 0.276-0.081 0.082-0.168 0.169-0.26 0.261z" fill="#ffffff" data-fill-palette-color="primary"></path><path d="M250.744 221.034v0c-2.293 3.267-5.035 3.782-8.224 1.543v0l-10.378-7.284 4.19-5.97 13.651 9.581c0.117-0.059 0.224-0.159 0.321-0.297v0l0.322-0.46c0.523-0.746 0.641-1.984 0.352-3.715v0c-0.091-0.521-0.224-1.042-0.398-1.564v0l-11.213-7.87 4.208-5.994 14.895 10.454-4.208 5.995-2.146-1.506c0.546 2.643 0.088 5.005-1.372 7.087z" fill="#ffffff" data-fill-palette-color="primary"></path><path d="M268.06 188.003v0c-0.578 1.468-1.472 2.757-2.683 3.866v0l0.703 0.276-2.566 6.521-22.439-8.829 2.565-6.521 6.312 2.484c-0.2-1.628-0.011-3.176 0.567-4.644 0.578-1.468 1.301-2.674 2.169-3.619 0.872-0.936 1.844-1.65 2.915-2.142v0c2.252-1.007 4.631-1.017 7.137-0.031v0c2.525 0.993 4.305 2.626 5.341 4.897v0c1.089 2.358 1.082 4.938-0.021 7.742zM251.677 181.612v0c-0.615 1.563-0.734 3.138-0.358 4.726v0l12.72 5.004c1.321-1.073 2.322-2.474 3.001-4.201v0l0.161-0.408c0.05-0.127 0.089-0.254 0.117-0.382v0l-15.064-5.927c-0.223 0.38-0.415 0.776-0.577 1.188z" fill="#ffffff" data-fill-palette-color="primary"></path><path d="M1.54 140.64c0-5.446 4.415-9.861 9.862-9.861 5.446 0 9.861 4.415 9.861 9.861 0 5.446-4.415 9.861-9.861 9.862-5.446 0-9.861-4.415-9.862-9.862z" fill="#ffffff" data-fill-palette-color="primary"></path><path d="M257.007 140.64c0-5.446 4.415-9.861 9.861-9.861 5.446 0 9.861 4.415 9.861 9.861 0 5.446-4.415 9.861-9.861 9.862-5.446 0-9.861-4.415-9.861-9.862z" fill="#ffffff" data-fill-palette-color="primary"></path></g><g id="text-1"></g></svg></g><g transform="matrix(1,0,0,1,53.1494936,293.90976051989816)"><svg viewBox="0 0 171.97061280000003 14.627298002787304" height="14.627298002787304" width="171.97061280000003"><g transform="matrix(1,0,0,1,0,0)"><svg width="171.97061280000003" viewBox="3 -37.7 452 38.45" height="14.627298002787304" data-palette-color="#5d2510"><path d="M9.35 0L3 0 3-34.55 19.7-34.55 19-29.8 9.35-29.8 9.35-19.25 17.75-19.25 17.75-14.5 9.35-14.5 9.35 0ZM34.65-27.1Q35.8-27.1 36.7-26.75L36.7-26.75 35.7-20.85Q34.7-21.1 33.85-21.1L33.85-21.1Q31.95-21.1 30.85-19.45 29.75-17.8 29.15-14.55L29.15-14.55 29.15 0 23 0 23-26.45 28.35-26.45 28.8-21.85Q30.65-27.1 34.65-27.1L34.65-27.1ZM58.4-13.85Q58.4-13.4 58.25-11.3L58.25-11.3 44.6-11.3Q44.8-7.2 46.02-5.58 47.25-3.95 49.5-3.95L49.5-3.95Q51.05-3.95 52.3-4.48 53.55-5 55-6.15L55-6.15 57.55-2.65Q54.05 0.75 49.15 0.75L49.15 0.75Q43.95 0.75 41.17-2.85 38.4-6.45 38.4-13L38.4-13Q38.4-19.55 41.05-23.35 43.7-27.15 48.55-27.15L48.55-27.15Q53.2-27.15 55.8-23.78 58.4-20.4 58.4-13.85L58.4-13.85ZM52.4-15.3L52.4-15.65Q52.4-19.4 51.5-21.13 50.6-22.85 48.6-22.85L48.6-22.85Q46.75-22.85 45.77-21.18 44.8-19.5 44.6-15.3L44.6-15.3 52.4-15.3ZM81.54-13.85Q81.54-13.4 81.39-11.3L81.39-11.3 67.74-11.3Q67.94-7.2 69.17-5.58 70.39-3.95 72.64-3.95L72.64-3.95Q74.19-3.95 75.44-4.48 76.69-5 78.14-6.15L78.14-6.15 80.69-2.65Q77.19 0.75 72.29 0.75L72.29 0.75Q67.09 0.75 64.32-2.85 61.54-6.45 61.54-13L61.54-13Q61.54-19.55 64.19-23.35 66.84-27.15 71.69-27.15L71.69-27.15Q76.34-27.15 78.94-23.78 81.54-20.4 81.54-13.85L81.54-13.85ZM75.54-15.3L75.54-15.65Q75.54-19.4 74.64-21.13 73.74-22.85 71.74-22.85L71.74-22.85Q69.89-22.85 68.92-21.18 67.94-19.5 67.74-15.3L67.74-15.3 75.54-15.3ZM91.44 0.75Q88.74 0.75 87.17-0.93 85.59-2.6 85.59-5.4L85.59-5.4 85.59-37.05 91.74-37.7 91.74-5.65Q91.74-5 92.04-4.6 92.34-4.2 92.94-4.2L92.94-4.2Q93.29-4.2 93.62-4.3 93.94-4.4 94.04-4.4L94.04-4.4 95.24-0.2Q93.54 0.75 91.44 0.75L91.44 0.75ZM115.19-6.4Q115.19-5.1 115.54-4.48 115.89-3.85 116.69-3.45L116.69-3.45 115.44 0.65Q113.39 0.4 112.16-0.45 110.94-1.3 110.34-3.05L110.34-3.05Q108.04 0.75 103.89 0.75L103.89 0.75Q100.59 0.75 98.64-1.48 96.69-3.7 96.69-7.4L96.69-7.4Q96.69-11.7 99.36-13.95 102.04-16.2 107.14-16.2L107.14-16.2 109.19-16.2 109.19-18.05Q109.19-20.55 108.31-21.58 107.44-22.6 105.49-22.6L105.49-22.6Q103.14-22.6 99.64-21.3L99.64-21.3 98.24-25.3Q100.24-26.2 102.39-26.68 104.54-27.15 106.49-27.15L106.49-27.15Q115.19-27.15 115.19-18.35L115.19-18.35 115.19-6.4ZM105.54-3.7Q107.94-3.7 109.19-7L109.19-7 109.19-12.55 107.74-12.55Q105.19-12.55 104.01-11.4 102.84-10.25 102.84-7.85L102.84-7.85Q102.84-5.8 103.54-4.75 104.24-3.7 105.54-3.7L105.54-3.7ZM133.34-27.15Q136.19-27.15 137.84-25.1 139.49-23.05 139.49-19.6L139.49-19.6 139.49 0 133.34 0 133.34-18.9Q133.34-20.8 132.81-21.63 132.29-22.45 131.29-22.45L131.29-22.45Q129.19-22.45 127.14-18.5L127.14-18.5 127.14 0 120.99 0 120.99-26.45 126.34-26.45 126.79-23Q128.14-25.1 129.66-26.13 131.19-27.15 133.34-27.15L133.34-27.15ZM154.53-27.15Q156.68-27.15 158.43-26.43 160.18-25.7 161.78-24.15L161.78-24.15 159.13-20.65Q158.03-21.55 157.06-21.98 156.08-22.4 154.93-22.4L154.93-22.4Q152.68-22.4 151.53-20.28 150.38-18.15 150.38-13.1L150.38-13.1Q150.38-8.2 151.56-6.2 152.73-4.2 154.93-4.2L154.93-4.2Q156.03-4.2 156.93-4.6 157.83-5 159.03-5.85L159.03-5.85 161.78-2.3Q158.58 0.75 154.63 0.75L154.63 0.75Q149.53 0.75 146.71-2.73 143.88-6.2 143.88-13L143.88-13Q143.88-17.4 145.18-20.6 146.48-23.8 148.91-25.48 151.33-27.15 154.53-27.15L154.53-27.15ZM183.68-13.85Q183.68-13.4 183.53-11.3L183.53-11.3 169.88-11.3Q170.08-7.2 171.31-5.58 172.53-3.95 174.78-3.95L174.78-3.95Q176.33-3.95 177.58-4.48 178.83-5 180.28-6.15L180.28-6.15 182.83-2.65Q179.33 0.75 174.43 0.75L174.43 0.75Q169.23 0.75 166.46-2.85 163.68-6.45 163.68-13L163.68-13Q163.68-19.55 166.33-23.35 168.98-27.15 173.83-27.15L173.83-27.15Q178.48-27.15 181.08-23.78 183.68-20.4 183.68-13.85L183.68-13.85ZM177.68-15.3L177.68-15.65Q177.68-19.4 176.78-21.13 175.88-22.85 173.88-22.85L173.88-22.85Q172.03-22.85 171.06-21.18 170.08-19.5 169.88-15.3L169.88-15.3 177.68-15.3ZM199.63-27.1Q200.78-27.1 201.68-26.75L201.68-26.75 200.68-20.85Q199.68-21.1 198.83-21.1L198.83-21.1Q196.93-21.1 195.83-19.45 194.73-17.8 194.13-14.55L194.13-14.55 194.13 0 187.98 0 187.98-26.45 193.33-26.45 193.78-21.85Q195.63-27.1 199.63-27.1L199.63-27.1ZM211.88-27.15Q216.58-27.15 219.83-24.05L219.83-24.05 217.48-20.7Q216.08-21.7 214.83-22.2 213.58-22.7 212.28-22.7L212.28-22.7Q210.83-22.7 210-21.93 209.18-21.15 209.18-19.8L209.18-19.8Q209.18-18.45 210.1-17.63 211.03-16.8 213.83-15.7L213.83-15.7Q217.28-14.35 218.93-12.5 220.58-10.65 220.58-7.55L220.58-7.55Q220.58-3.7 217.88-1.48 215.18 0.75 211.03 0.75L211.03 0.75Q208.33 0.75 206.05-0.23 203.78-1.2 202.08-2.95L202.08-2.95 205.08-6.25Q207.88-3.8 210.78-3.8L210.78-3.8Q212.43-3.8 213.38-4.67 214.33-5.55 214.33-7.1L214.33-7.1Q214.33-8.25 213.93-8.97 213.53-9.7 212.53-10.33 211.53-10.95 209.53-11.7L209.53-11.7Q206.08-13.05 204.6-14.85 203.13-16.65 203.13-19.45L203.13-19.45Q203.13-22.8 205.5-24.98 207.88-27.15 211.88-27.15L211.88-27.15ZM251.72-26.45L245.62-14.15 252.77 0 246.27 0 241.87-10.65 237.57 0 231.22 0 238.37-13.95 231.92-26.45 238.32-26.45 241.97-17.25 245.52-26.45 251.72-26.45ZM273.37-34.55Q279.62-34.55 282.89-31.78 286.17-29 286.17-23.6L286.17-23.6Q286.17-17.85 282.94-15 279.72-12.15 273.82-12.15L273.82-12.15 271.82-12.15 271.82 0 265.47 0 265.47-34.55 273.37-34.55ZM273.47-16.9Q276.72-16.9 278.17-18.4 279.62-19.9 279.62-23.55L279.62-23.55Q279.62-26.85 278.17-28.35 276.72-29.85 273.52-29.85L273.52-29.85 271.82-29.85 271.82-16.9 273.47-16.9ZM301.41-27.1Q302.56-27.1 303.46-26.75L303.46-26.75 302.46-20.85Q301.46-21.1 300.61-21.1L300.61-21.1Q298.71-21.1 297.61-19.45 296.51-17.8 295.91-14.55L295.91-14.55 295.91 0 289.76 0 289.76-26.45 295.11-26.45 295.56-21.85Q297.41-27.1 301.41-27.1L301.41-27.1ZM315.71-27.15Q320.71-27.15 323.49-23.65 326.26-20.15 326.26-13.25L326.26-13.25Q326.26-6.65 323.46-2.95 320.66 0.75 315.71 0.75L315.71 0.75Q310.76 0.75 307.96-2.88 305.16-6.5 305.16-13.25L305.16-13.25Q305.16-19.95 307.96-23.55 310.76-27.15 315.71-27.15L315.71-27.15ZM315.71-22.5Q313.56-22.5 312.56-20.38 311.56-18.25 311.56-13.25L311.56-13.25Q311.56-8.2 312.56-6.08 313.56-3.95 315.71-3.95L315.71-3.95Q317.86-3.95 318.86-6.08 319.86-8.2 319.86-13.25L319.86-13.25Q319.86-18.3 318.86-20.4 317.86-22.5 315.71-22.5L315.71-22.5ZM343.76-37.7L349.91-37.05 349.91 0 344.46 0 344.16-3.05Q341.81 0.75 338.11 0.75L338.11 0.75Q334.01 0.75 331.83-2.93 329.66-6.6 329.66-13.2L329.66-13.2Q329.66-17.4 330.78-20.58 331.91-23.75 333.91-25.45 335.91-27.15 338.51-27.15L338.51-27.15Q341.71-27.15 343.76-24.5L343.76-24.5 343.76-37.7ZM339.86-3.9Q341.01-3.9 341.93-4.7 342.86-5.5 343.76-7L343.76-7 343.76-19.85Q342.16-22.55 340.11-22.55L340.11-22.55Q336.06-22.55 336.06-13.25L336.06-13.25Q336.06-8.2 337.06-6.05 338.06-3.9 339.86-3.9L339.86-3.9ZM373.76-26.45L373.76 0 368.41 0 368.11-3.35Q366.86-1.3 365.31-0.28 363.76 0.75 361.71 0.75L361.71 0.75Q358.81 0.75 357.13-1.3 355.46-3.35 355.46-6.65L355.46-6.65 355.46-26.45 361.61-26.45 361.61-7Q361.61-3.9 363.71-3.9L363.71-3.9Q364.91-3.9 365.86-4.83 366.81-5.75 367.61-7.45L367.61-7.45 367.61-26.45 373.76-26.45ZM388.95-27.15Q391.1-27.15 392.85-26.43 394.6-25.7 396.2-24.15L396.2-24.15 393.55-20.65Q392.45-21.55 391.48-21.98 390.5-22.4 389.35-22.4L389.35-22.4Q387.1-22.4 385.95-20.28 384.8-18.15 384.8-13.1L384.8-13.1Q384.8-8.2 385.98-6.2 387.15-4.2 389.35-4.2L389.35-4.2Q390.45-4.2 391.35-4.6 392.25-5 393.45-5.85L393.45-5.85 396.2-2.3Q393 0.75 389.05 0.75L389.05 0.75Q383.95 0.75 381.13-2.73 378.3-6.2 378.3-13L378.3-13Q378.3-17.4 379.6-20.6 380.9-23.8 383.33-25.48 385.75-27.15 388.95-27.15L388.95-27.15ZM418.1-13.85Q418.1-13.4 417.95-11.3L417.95-11.3 404.3-11.3Q404.5-7.2 405.73-5.58 406.95-3.95 409.2-3.95L409.2-3.95Q410.75-3.95 412-4.48 413.25-5 414.7-6.15L414.7-6.15 417.25-2.65Q413.75 0.75 408.85 0.75L408.85 0.75Q403.65 0.75 400.88-2.85 398.1-6.45 398.1-13L398.1-13Q398.1-19.55 400.75-23.35 403.4-27.15 408.25-27.15L408.25-27.15Q412.9-27.15 415.5-23.78 418.1-20.4 418.1-13.85L418.1-13.85ZM412.1-15.3L412.1-15.65Q412.1-19.4 411.2-21.13 410.3-22.85 408.3-22.85L408.3-22.85Q406.45-22.85 405.48-21.18 404.5-19.5 404.3-15.3L404.3-15.3 412.1-15.3ZM434.05-27.1Q435.2-27.1 436.1-26.75L436.1-26.75 435.1-20.85Q434.1-21.1 433.25-21.1L433.25-21.1Q431.35-21.1 430.25-19.45 429.15-17.8 428.55-14.55L428.55-14.55 428.55 0 422.4 0 422.4-26.45 427.75-26.45 428.2-21.85Q430.05-27.1 434.05-27.1L434.05-27.1ZM446.3-27.15Q451-27.15 454.25-24.05L454.25-24.05 451.9-20.7Q450.5-21.7 449.25-22.2 448-22.7 446.7-22.7L446.7-22.7Q445.25-22.7 444.42-21.93 443.6-21.15 443.6-19.8L443.6-19.8Q443.6-18.45 444.52-17.63 445.45-16.8 448.25-15.7L448.25-15.7Q451.7-14.35 453.35-12.5 455-10.65 455-7.55L455-7.55Q455-3.7 452.3-1.48 449.6 0.75 445.45 0.75L445.45 0.75Q442.75 0.75 440.47-0.23 438.2-1.2 436.5-2.95L436.5-2.95 439.5-6.25Q442.3-3.8 445.2-3.8L445.2-3.8Q446.85-3.8 447.8-4.67 448.75-5.55 448.75-7.1L448.75-7.1Q448.75-8.25 448.35-8.97 447.95-9.7 446.95-10.33 445.95-10.95 443.95-11.7L443.95-11.7Q440.5-13.05 439.02-14.85 437.55-16.65 437.55-19.45L437.55-19.45Q437.55-22.8 439.92-24.98 442.3-27.15 446.3-27.15L446.3-27.15Z" opacity="1" transform="matrix(1,0,0,1,0,0)" fill="#ffffff" class="slogan-text-1" data-fill-palette-color="secondary" id="text-1"></path></svg></g></svg></g></svg></g></svg></g></svg></g><defs></defs></svg><rect width="252.5320244286675" height="280" fill="none" stroke="none" visibility="hidden"></rect></g></svg></g></svg>